<svg width="688" height="529" viewBox="0 0 688 529" fill="none" xmlns="http://www.w3.org/2000/svg">
<path fill-rule="evenodd" clip-rule="evenodd" d="M536.545 156.631L497.707 136.938L409.213 120.336L408.592 120.766L406.222 120.336H244.39L151.509 151.047L120 181.559L128.525 207.534L128.527 207.535L164.123 266.264L160.753 250.805L175.949 304.89L175.542 304.952L213.031 323.611L240.654 381.979L268.32 394.491L268.32 394.493L268.322 394.492L268.322 394.492L268.321 394.493L306.81 438.167L314.189 487.574L314.189 487.573L366.338 528.106L404.378 512.551L416.543 487.673H416.54L424.071 472.268L458.223 444.548L458.121 444.051L458.223 444.548L472.831 363.583L515.351 286.867L530.663 282.318L530.664 282.318L551.603 252.803L539.139 224.136L471.385 251.008L471.384 251.008L539.137 224.136L567.904 192.029L536.545 156.631ZM301.298 285.9L296.74 259.683L406.622 231.265L406.621 231.265L296.739 259.683L296.74 259.683L301.298 285.9ZM440.375 309.143L439.378 309.439L433.697 312.959L440.375 309.143ZM431.44 314.357L431.443 314.372L384.176 343.642L431.44 314.357ZM301.656 287.557L383.938 343.79L305.665 371.16L366.588 427.746L366.588 427.747L366.587 427.747L305.663 371.16L268.324 394.492L268.323 394.491L305.662 371.161L303.369 324.697L303.372 324.695L303.017 317.012L305.663 371.16L383.936 343.79L301.656 287.558L301.656 287.557ZM160.383 249.107L163.569 232.689L160.69 250.515L160.383 249.107ZM278.542 421.814L298.883 441.008L301.575 448.885L287.316 450.032L268.321 437.269L278.542 421.814ZM146.174 259.683L160.682 274.091H146.174V259.683Z" fill="#040415"/>
<g opacity="0.4">
<path d="M128.526 207.534L164.123 266.264L160.383 249.107L163.575 232.661L128.526 207.534Z" stroke="white" stroke-width="0.88092" stroke-miterlimit="10" stroke-linejoin="round"/>
<path d="M536.545 156.631L497.707 136.938L406.222 120.336H244.39L151.509 151.047L120 181.559L128.525 207.534L163.574 232.661L160.682 250.559L296.739 259.683L406.621 231.265L471.383 251.008L539.137 224.136L567.904 192.029L536.545 156.631Z" stroke="white" stroke-width="0.88092" stroke-miterlimit="10" stroke-linejoin="round"/>
<g style="mix-blend-mode:soft-light" opacity="0.77">
<path d="M536.545 156.631L497.707 136.938L409.213 120.336L408.565 120.785L406.222 120.336H244.39L151.509 151.047L120 181.559L128.525 207.534L163.574 232.661L160.682 250.559L296.739 259.683L406.621 231.265L471.383 251.008L539.137 224.136L567.904 192.029L536.545 156.631Z" stroke="white" stroke-width="0.88092" stroke-miterlimit="10" stroke-linejoin="round"/>
</g>
<path d="M431.42 314.26L458.223 444.548L472.831 363.583L515.358 286.855L440.542 309.048L431.42 314.26Z" stroke="white" stroke-width="0.88092" stroke-miterlimit="10" stroke-linejoin="round"/>
<path d="M305.663 371.16L383.936 343.79L301.575 287.502L305.663 371.16Z" stroke="white" stroke-width="0.88092" stroke-miterlimit="10" stroke-linejoin="round"/>
<path d="M211.987 321.405L240.654 381.979L268.324 394.493L262.79 348.377L211.987 321.405Z" stroke="white" stroke-width="0.88092" stroke-miterlimit="10" stroke-linejoin="round"/>
<path d="M366.588 427.747L305.665 371.16L383.938 343.79L431.6 314.275L366.588 427.747Z" stroke="white" stroke-width="0.88092" stroke-miterlimit="10" stroke-linejoin="round"/>
<path d="M424.071 472.268L366.588 427.747L458.223 444.548L424.071 472.268Z" stroke="white" stroke-width="0.88092" stroke-miterlimit="10" stroke-linejoin="round"/>
<path d="M366.588 427.747L458.223 444.548L431.6 314.275L366.588 427.747Z" stroke="white" stroke-width="0.88092" stroke-miterlimit="10" stroke-linejoin="round"/>
<path d="M262.789 348.376L303.372 324.695L301.577 285.857L175.542 304.952L262.789 348.376Z" stroke="white" stroke-width="0.88092" stroke-miterlimit="10" stroke-linejoin="round"/>
<path d="M366.587 427.747L314.189 487.574L306.81 438.167L268.321 394.493L366.587 427.747Z" stroke="white" stroke-width="0.88092" stroke-miterlimit="10" stroke-linejoin="round"/>
<path d="M314.189 487.574L404.378 512.551L366.338 528.106L314.189 487.574Z" stroke="white" stroke-width="0.88092" stroke-miterlimit="10" stroke-linejoin="round"/>
<path d="M314.189 487.573L366.588 427.747L424.071 472.268L404.378 512.551L314.189 487.573Z" stroke="white" stroke-width="0.88092" stroke-miterlimit="10" stroke-linejoin="round"/>
<path d="M268.32 394.493L305.662 371.161L303.369 324.695L262.786 348.377L268.32 394.493Z" stroke="white" stroke-width="0.88092" stroke-miterlimit="10" stroke-linejoin="round"/>
<path d="M268.321 394.493L305.663 371.16L366.587 427.747L268.321 394.493Z" stroke="white" stroke-width="0.88092" stroke-miterlimit="10" stroke-linejoin="round"/>
<path d="M416.543 487.673L314.189 487.574L404.378 512.551L416.543 487.673Z" stroke="white" stroke-width="0.88092" stroke-miterlimit="10" stroke-linejoin="round"/>
<path d="M306.81 438.167L366.587 427.747L268.321 394.493L306.81 438.167Z" stroke="white" stroke-width="0.88092" stroke-miterlimit="10" stroke-linejoin="round"/>
<path d="M298.883 441.008L278.542 421.814L268.321 437.269L287.316 450.032L301.575 448.885L298.883 441.008Z" stroke="white" stroke-width="0.88092" stroke-miterlimit="10" stroke-linejoin="round"/>
<path d="M278.542 421.814L287.316 450.032L268.321 437.269L278.542 421.814Z" stroke="white" stroke-width="0.88092" stroke-miterlimit="10" stroke-linejoin="round"/>
<path d="M383.938 343.79L439.378 309.439L406.622 231.265L296.74 259.683L301.576 287.503L383.938 343.79Z" stroke="white" stroke-width="0.88092" stroke-miterlimit="10" stroke-linejoin="round"/>
<path d="M439.378 309.439L530.664 282.318L471.385 251.008L406.623 231.265L439.378 309.439Z" stroke="white" stroke-width="0.88092" stroke-miterlimit="10" stroke-linejoin="round"/>
<path d="M530.663 282.318L551.603 252.803L539.139 224.136L471.385 251.008L530.663 282.318Z" stroke="white" stroke-width="0.88092" stroke-miterlimit="10" stroke-linejoin="round"/>
<path d="M176.019 305.139L301.576 287.503L296.74 259.683L160.684 250.56L176.019 305.139Z" stroke="white" stroke-width="0.88092" stroke-miterlimit="10" stroke-linejoin="round"/>
<g filter="url(#filter0_bd_2_5)">
<path d="M567.904 192.029L536.545 156.631L497.707 136.938L409.213 120.336L408.565 120.785L406.621 120.436L406.222 120.336H244.39L151.509 151.047L130.769 171.139L120 181.559L128.525 207.534L163.574 232.661L160.682 250.559L176.786 251.606L296.739 259.683L369.129 240.937L406.621 231.265L471.383 251.008L539.137 224.136L553.147 208.481L567.904 192.029Z" fill="url(#paint0_linear_2_5)"/>
<path d="M161.264 250.096L164.068 232.741L164.117 232.435L163.865 232.255L128.949 207.223L120.573 181.701L131.117 171.499L131.117 171.498L151.774 151.486L244.471 120.836H406.16L406.499 120.921L406.516 120.925L406.532 120.928L408.477 121.277L408.68 121.313L408.85 121.196L409.326 120.866L497.545 137.416L536.234 157.034L567.234 192.027L552.774 208.147L552.774 208.148L538.843 223.715L471.362 250.479L406.766 230.787L406.632 230.746L406.496 230.781L369.004 240.453L369.004 240.453L296.692 259.179L176.819 251.107L176.818 251.107L161.264 250.096Z" stroke="#D8FF3E"/>
</g>
</g>
<defs>
<filter id="filter0_bd_2_5" x="0" y="0.336182" width="687.904" height="379.347" filterUnits="userSpaceOnUse" color-interpolation-filters="sRGB">
<feFlood flood-opacity="0" result="BackgroundImageFix"/>
<feGaussianBlur in="BackgroundImageFix" stdDeviation="4"/>
<feComposite in2="SourceAlpha" operator="in" result="effect1_backgroundBlur_2_5"/>
<feColorMatrix in="SourceAlpha" type="matrix" values="0 0 0 0 0 0 0 0 0 0 0 0 0 0 0 0 0 0 127 0" result="hardAlpha"/>
<feOffset/>
<feGaussianBlur stdDeviation="60"/>
<feComposite in2="hardAlpha" operator="out"/>
<feColorMatrix type="matrix" values="0 0 0 0 0.847059 0 0 0 0 1 0 0 0 0 0.243137 0 0 0 0.7 0"/>
<feBlend mode="normal" in2="effect1_backgroundBlur_2_5" result="effect2_dropShadow_2_5"/>
<feBlend mode="normal" in="SourceGraphic" in2="effect2_dropShadow_2_5" result="shape"/>
</filter>
<linearGradient id="paint0_linear_2_5" x1="895.532" y1="80.7248" x2="810.42" y2="505.566" gradientUnits="userSpaceOnUse">
<stop stop-color="#22270C"/>
<stop offset="0.234375" stop-color="#0A0A16"/>
<stop offset="0.833133" stop-color="#22270C"/>
<stop offset="0.833233" stop-color="#303810"/>
<stop offset="1" stop-color="#0A0A16"/>
</linearGradient>
</defs>
</svg>
