<svg width="135" height="123" viewBox="0 0 135 123" fill="none" xmlns="http://www.w3.org/2000/svg">
<path fill-rule="evenodd" clip-rule="evenodd" d="M124.437 11.5344L112.928 5.69867L86.704 0.778931L86.5199 0.906386L85.8176 0.778931H37.8611L10.3372 9.87972L1 18.9214L3.52635 26.6187L13.9125 34.0648L13.0574 39.3572L12.9661 38.9382L13.9121 34.0648L3.52591 26.6187L14.0746 44.0225L13.0743 39.4347L17.5795 55.4688L17.4586 55.4871L28.5674 61.0162L36.7532 78.313L44.9526 82.0212L44.9528 82.0213L56.3581 94.9633L58.5446 109.604L74.072 91.8753L93.2991 58.3164L93.2993 58.3171L74.0725 91.8754L74.0729 91.8757L58.5457 109.604L73.9993 121.616L85.2718 117.006L88.8767 109.634H88.8758L91.1076 105.069L91.1072 105.068L101.227 96.8543L101.227 96.8543L105.556 72.8614L118.156 50.1278L122.694 48.7797L122.693 48.7793L128.898 40.0335L125.204 31.5388L125.205 31.5384L133.73 22.0239L124.437 11.5344ZM53.3734 42.0723L53.3739 42.0723L13.06 39.3689L13.06 39.369L53.3734 42.0723ZM85.9359 33.6511L85.9358 33.6511L85.9353 33.6511L95.6418 56.8168L93.95 57.8651L95.9383 56.7289L95.6425 56.8168L85.9359 33.6511ZM93.2913 58.2783L79.2135 66.9959L93.2903 58.2738L93.2913 58.2783ZM43.3132 68.3553L44.9531 82.0209L44.9527 82.0211L43.3128 68.3553L43.3085 68.353L43.3131 68.3553L43.3132 68.3553ZM55.3391 61.3377L55.3393 61.3376L55.9751 74.2197L55.2274 58.9198L55.3391 61.3377ZM47.9812 90.1174L54.009 95.8054L54.8068 98.1397L50.5815 98.4795L44.9526 94.6974L47.9812 90.1174ZM8.75673 42.0724L13.056 46.3421H8.75673V42.0724Z" fill="#040415"/>
<g opacity="0.4">
<path d="M3.52588 26.6187L14.0745 44.0225L12.966 38.9382L13.912 34.0648L3.52588 26.6187Z" stroke="white" stroke-width="0.88092" stroke-miterlimit="10" stroke-linejoin="round"/>
<path d="M124.437 11.5344L112.928 5.69867L85.8176 0.778931H37.8612L10.3372 9.87972L1 18.9214L3.52635 26.6187L13.9125 34.0648L13.0556 39.3686L53.3739 42.0723L85.9358 33.6511L105.127 39.5016L125.205 31.5384L133.73 22.0239L124.437 11.5344Z" stroke="white" stroke-width="0.88092" stroke-miterlimit="10" stroke-linejoin="round"/>
<g style="mix-blend-mode:soft-light" opacity="0.77">
<path d="M124.437 11.5344L112.928 5.69867L86.704 0.778931L86.5119 0.911897L85.8176 0.778931H37.8612L10.3372 9.87972L1 18.9214L3.52635 26.6187L13.9125 34.0648L13.0556 39.3686L53.3739 42.0723L85.9358 33.6511L105.127 39.5016L125.205 31.5384L133.73 22.0239L124.437 11.5344Z" stroke="white" stroke-width="0.88092" stroke-miterlimit="10" stroke-linejoin="round"/>
</g>
<path d="M133.73 22.0239L124.437 11.5344L112.928 5.69867L86.704 0.778931L86.5119 0.911897L85.9358 0.808479L85.8176 0.778931H37.8611L10.3372 9.87972L4.19119 15.8336L1 18.9214L3.52635 26.6187L13.9125 34.0648L13.0556 39.3686L17.8276 39.6789L53.3739 42.0723L74.8257 36.5173L85.9358 33.6511L105.127 39.5016L125.205 31.5384L129.357 26.8994L133.73 22.0239Z" fill="url(#paint0_linear_0_318)" stroke="white" stroke-width="0.88092" stroke-miterlimit="10" stroke-linejoin="round"/>
<path d="M93.2844 58.2453L101.227 96.8543L105.556 72.8613L118.158 50.1241L95.9874 56.7008L93.2844 58.2453Z" stroke="white" stroke-width="0.88092" stroke-miterlimit="10" stroke-linejoin="round"/>
<path d="M56.0183 75.107L79.2135 66.9961L54.8069 50.3162L56.0183 75.107Z" stroke="white" stroke-width="0.88092" stroke-miterlimit="10" stroke-linejoin="round"/>
<path d="M28.2581 60.3625L36.7531 78.313L44.9527 82.0212L43.3128 68.3553L28.2581 60.3625Z" stroke="white" stroke-width="0.88092" stroke-miterlimit="10" stroke-linejoin="round"/>
<path d="M74.0719 91.8755L56.0181 75.107L79.2133 66.996L93.3372 58.2498L74.0719 91.8755Z" stroke="white" stroke-width="0.88092" stroke-miterlimit="10" stroke-linejoin="round"/>
<path d="M91.1069 105.069L74.0725 91.8754L101.227 96.8543L91.1069 105.069Z" stroke="white" stroke-width="0.88092" stroke-miterlimit="10" stroke-linejoin="round"/>
<path d="M74.0725 91.8755L101.227 96.8543L93.3378 58.2498L74.0725 91.8755Z" stroke="white" stroke-width="0.88092" stroke-miterlimit="10" stroke-linejoin="round"/>
<path d="M43.313 68.3553L55.3391 61.3376L54.8072 49.8287L17.4585 55.4871L43.313 68.3553Z" stroke="white" stroke-width="0.88092" stroke-miterlimit="10" stroke-linejoin="round"/>
<path d="M74.0722 91.8755L58.5447 109.604L56.3582 94.9633L44.9526 82.0212L74.0722 91.8755Z" stroke="white" stroke-width="0.88092" stroke-miterlimit="10" stroke-linejoin="round"/>
<path d="M58.5457 109.604L85.2718 117.006L73.9993 121.616L58.5457 109.604Z" stroke="white" stroke-width="0.88092" stroke-miterlimit="10" stroke-linejoin="round"/>
<path d="M58.5457 109.604L74.0731 91.8754L91.1076 105.069L85.2718 117.006L58.5457 109.604Z" stroke="white" stroke-width="0.88092" stroke-miterlimit="10" stroke-linejoin="round"/>
<path d="M44.9531 82.0212L56.0189 75.107L55.3393 61.3376L43.3132 68.3552L44.9531 82.0212Z" stroke="white" stroke-width="0.88092" stroke-miterlimit="10" stroke-linejoin="round"/>
<path d="M44.9526 82.0212L56.0184 75.1069L74.0722 91.8754L44.9526 82.0212Z" stroke="white" stroke-width="0.88092" stroke-miterlimit="10" stroke-linejoin="round"/>
<path d="M88.8767 109.634L58.5457 109.604L85.2718 117.006L88.8767 109.634Z" stroke="white" stroke-width="0.88092" stroke-miterlimit="10" stroke-linejoin="round"/>
<path d="M56.3582 94.9633L74.0722 91.8755L44.9526 82.0212L56.3582 94.9633Z" stroke="white" stroke-width="0.88092" stroke-miterlimit="10" stroke-linejoin="round"/>
<path d="M54.0091 95.8054L47.9813 90.1174L44.9526 94.6974L50.5815 98.4795L54.8069 98.1397L54.0091 95.8054Z" stroke="white" stroke-width="0.88092" stroke-miterlimit="10" stroke-linejoin="round"/>
<path d="M47.9813 90.1174L50.5815 98.4795L44.9526 94.6974L47.9813 90.1174Z" stroke="white" stroke-width="0.88092" stroke-miterlimit="10" stroke-linejoin="round"/>
<path d="M13.0561 46.3421L8.75684 42.0724V46.3421H13.0561Z" stroke="white" stroke-width="0.88092" stroke-miterlimit="10" stroke-linejoin="round"/>
<path d="M79.213 66.9961L95.6417 56.8168L85.9352 33.6511L53.3733 42.0723L54.8064 50.3162L79.213 66.9961Z" stroke="white" stroke-width="0.88092" stroke-miterlimit="10" stroke-linejoin="round"/>
<path d="M95.6426 56.8168L122.694 48.7797L105.127 39.5016L85.936 33.6511L95.6426 56.8168Z" stroke="white" stroke-width="0.88092" stroke-miterlimit="10" stroke-linejoin="round"/>
<path d="M122.693 48.7797L128.898 40.0334L125.204 31.5384L105.126 39.5016L122.693 48.7797Z" stroke="white" stroke-width="0.88092" stroke-miterlimit="10" stroke-linejoin="round"/>
<path d="M17.6003 55.5424L54.8073 50.3163L53.3742 42.0724L13.0559 39.3687L17.6003 55.5424Z" stroke="white" stroke-width="0.88092" stroke-miterlimit="10" stroke-linejoin="round"/>
</g>
<defs>
<linearGradient id="paint0_linear_0_318" x1="140.607" y1="-17.1784" x2="-44.986" y2="96.4327" gradientUnits="userSpaceOnUse">
<stop stop-color="#D9D9D9" stop-opacity="0"/>
<stop offset="0.0001" stop-color="#D9D9D9" stop-opacity="0"/>
<stop offset="1" stop-color="#D9D9D9" stop-opacity="0.28"/>
</linearGradient>
</defs>
</svg>
