<svg width="297" height="250" viewBox="0 0 297 250" fill="none" xmlns="http://www.w3.org/2000/svg">
<path fill-rule="evenodd" clip-rule="evenodd" d="M279.596 25.4031L253.328 12.0719L191.433 0.842285H81.9602L22.0359 17.851L0.660156 45.3341L3.54958 59.8144L3.96497 60.1129L3.54911 59.8144L8.63864 87.002L23.907 97.0825L23.9086 97.0798V97.0825V97.0826L24.1714 125.518L33.3804 129.196L47.4184 159.043L94.7997 173.819H94.8L88.0033 187.084L100.152 198.281L111.513 194.735L113.147 196.767L125.96 212.793L125.96 212.794L125.961 212.794L142.017 238.57L174.327 234.367L154.33 208.657L125.961 212.794L154.33 208.657L158.04 169.845H158.04L158.041 169.846L154.331 208.657L174.328 234.367L175.15 208.985L178.903 227.516L182.942 222.361L175.258 202.824L185.864 188.737L174.091 200.921L158.042 169.846L204.512 186.163L238.847 127.061L222.842 134.942L271.65 110.906L271.651 110.906L291.844 81.7484L291.844 81.7477L291.845 81.7484L295.654 40.6714L295.653 40.6734L295.653 40.6714L281.337 71.2739L281.336 71.274L295.652 40.6715L279.596 25.4031ZM23.907 74.4418L23.9086 74.443V74.4426L23.907 74.4415V74.4418ZM155.623 141.334L158.04 169.845L158.041 169.844L155.625 141.334H155.623ZM62.5551 93.6737L58.6156 93.5691L58.6156 93.5693L62.5551 93.6926V93.6737ZM212.973 139.8L224.564 118.738H225.362L225.045 119.462L224.072 119.64L212.975 139.8L212.974 139.801L212.973 139.8ZM236.124 149.422L243.348 157.696L238.061 173.195L223.285 166.562L227.521 157.861L236.124 149.422ZM183.016 222.361L183.808 222.262L183.652 222.513L198.165 220.707L210.61 208.296L206.918 197.996L204.13 188.737H185.939L175.333 202.824L183.016 222.361ZM122.611 230.919L119.196 241.295L127.011 249.405L130.886 248.011V248.026L139.423 244.94L135.647 238.57L122.612 230.919L122.613 230.92L122.611 230.919Z" fill="#040415"/>
<path d="M279.596 25.4031L253.328 12.0719L191.433 0.842285H81.9602L22.0359 17.851L0.660156 45.3341L3.54958 59.8144L33.5282 81.3544L58.6144 93.5691L101.891 94.7183L170.714 97.5422L235.531 89.2348L281.336 71.274L295.652 40.6715L279.596 25.4031Z" fill="url(#paint0_linear_4_85)" stroke="white" stroke-width="0.88092" stroke-miterlimit="10" stroke-linejoin="round"/>
<path d="M119.195 106.178L110.231 111.76L116.569 126.076L133.774 122.596L131.147 110.644L119.195 106.178Z" stroke="white" stroke-width="0.88092" stroke-miterlimit="10" stroke-linejoin="round"/>
<path d="M238.848 87.9214L224.565 120.56L271.651 110.906L291.844 81.7484L295.653 40.6714L281.337 71.2739L238.848 87.9214Z" stroke="white" stroke-width="0.88092" stroke-miterlimit="10" stroke-linejoin="round"/>
<path d="M236.124 149.422L243.348 157.696L238.061 173.195L223.285 166.562L227.521 157.861L236.124 149.422Z" stroke="white" stroke-width="0.88092" stroke-miterlimit="10" stroke-linejoin="round"/>
<path d="M23.907 97.0825L33.5277 81.3544L3.54911 59.8145L23.907 97.0825Z" stroke="white" stroke-width="0.88092" stroke-miterlimit="10" stroke-linejoin="round"/>
<path d="M212.973 139.801L238.847 127.061L204.512 186.163L158.04 169.846L212.973 139.801Z" stroke="white" stroke-width="0.88092" stroke-miterlimit="10" stroke-linejoin="round"/>
<path d="M224.072 119.64L212.974 139.801L271.651 110.906L224.072 119.64Z" stroke="white" stroke-width="0.88092" stroke-miterlimit="10" stroke-linejoin="round"/>
<path d="M64.6241 141.673L33.3649 129.163L47.4184 159.043L94.7997 173.819L64.6241 141.673Z" stroke="white" stroke-width="0.88092" stroke-miterlimit="10" stroke-linejoin="round"/>
<path d="M173.014 113.631L154.331 126.076L172.259 142.034L212.975 139.801L173.014 113.631Z" stroke="white" stroke-width="0.88092" stroke-miterlimit="10" stroke-linejoin="round"/>
<path d="M122.611 95.5721L119.196 106.178L131.148 110.643L133.775 122.596L154.33 126.076L135.646 112.515L122.611 95.5721Z" stroke="white" stroke-width="0.88092" stroke-miterlimit="10" stroke-linejoin="round"/>
<path d="M154.331 126.076L158.041 169.845L212.975 139.801L172.259 142.034L154.331 126.076Z" stroke="white" stroke-width="0.88092" stroke-miterlimit="10" stroke-linejoin="round"/>
<path d="M59.4019 98.4946L33.5277 81.3546L23.907 97.0827L24.1697 125.518L64.6227 141.673L72.8644 129.163L59.4019 98.4946Z" stroke="white" stroke-width="0.88092" stroke-miterlimit="10" stroke-linejoin="round"/>
<path d="M158.041 169.845L175.334 203.327L174.328 234.367L154.331 208.657L158.041 169.845Z" stroke="white" stroke-width="0.88092" stroke-miterlimit="10" stroke-linejoin="round"/>
<path d="M124.155 193.388L105.931 146.697L94.7998 173.818L125.961 212.794L124.155 193.388Z" stroke="white" stroke-width="0.88092" stroke-miterlimit="10" stroke-linejoin="round"/>
<path d="M125.961 212.794L154.33 208.657L174.327 234.367L142.017 238.57L125.961 212.794Z" stroke="white" stroke-width="0.88092" stroke-miterlimit="10" stroke-linejoin="round"/>
<path d="M124.154 193.388L158.04 169.845L154.33 126.076L133.775 122.596L116.569 126.076L105.931 146.697L124.154 193.388Z" stroke="white" stroke-width="0.88092" stroke-miterlimit="10" stroke-linejoin="round"/>
<path d="M238.847 87.9215L271.65 110.906L281.336 71.274L238.847 87.9215Z" stroke="white" stroke-width="0.88092" stroke-miterlimit="10" stroke-linejoin="round"/>
<path d="M291.845 81.7484L281.338 71.2739L295.654 40.6714L291.845 81.7484Z" stroke="white" stroke-width="0.88092" stroke-miterlimit="10" stroke-linejoin="round"/>
<path d="M154.33 208.657L158.04 169.845L124.154 193.388L125.96 212.794L154.33 208.657Z" stroke="white" stroke-width="0.88092" stroke-miterlimit="10" stroke-linejoin="round"/>
<path d="M33.5289 81.3546L58.6151 93.5693L122.611 95.5722L119.196 106.178L110.232 111.76L66.0359 113.632L33.5289 81.3546Z" stroke="white" stroke-width="0.88092" stroke-miterlimit="10" stroke-linejoin="round"/>
<path d="M66.0362 113.631L72.8659 129.163L105.931 146.697L116.57 126.076L110.232 111.76L66.0362 113.631Z" stroke="white" stroke-width="0.88092" stroke-miterlimit="10" stroke-linejoin="round"/>
<path d="M212.972 139.801L228.404 111.76L193.271 94.6527L173.011 113.632L212.972 139.801Z" stroke="white" stroke-width="0.88092" stroke-miterlimit="10" stroke-linejoin="round"/>
<path d="M116.57 126.076L122.611 116.127L131.148 110.643L133.775 122.595L116.57 126.076Z" stroke="white" stroke-width="0.88092" stroke-miterlimit="10" stroke-linejoin="round"/>
<path d="M64.6244 141.673L94.8 173.819L105.931 146.697L72.866 129.163L64.6244 141.673Z" stroke="white" stroke-width="0.88092" stroke-miterlimit="10" stroke-linejoin="round"/>
<path d="M197.53 220.555L209.974 208.143L204.13 188.737H185.939L175.333 202.824L183.016 222.361L197.53 220.555Z" stroke="white" stroke-width="0.88092" stroke-miterlimit="10" stroke-linejoin="round"/>
<path d="M186.574 188.89L194.652 204.815L183.652 222.513L198.165 220.707L210.61 208.296L203.655 188.89L186.574 188.89Z" stroke="white" stroke-width="0.88092" stroke-miterlimit="10" stroke-linejoin="round"/>
<path d="M94.8002 173.819L88.0033 187.084L100.152 198.281L111.513 194.735L108.952 178.087L94.8002 173.819Z" stroke="white" stroke-width="0.88092" stroke-miterlimit="10" stroke-linejoin="round"/>
<path d="M88.0033 187.084L102.188 193.388L111.513 194.734L100.152 198.281L88.0033 187.084Z" stroke="white" stroke-width="0.88092" stroke-miterlimit="10" stroke-linejoin="round"/>
<g style="mix-blend-mode:soft-light" opacity="0.55">
<path d="M108.952 178.087L119.196 204.29L111.513 194.735L108.952 178.087Z" stroke="white" stroke-width="0.88092" stroke-miterlimit="10" stroke-linejoin="round"/>
</g>
<g style="mix-blend-mode:soft-light" opacity="0.55">
<path d="M185.864 188.737L173.617 201.412L178.903 227.516L182.942 222.361L175.258 202.824L185.864 188.737Z" stroke="white" stroke-width="0.88092" stroke-miterlimit="10" stroke-linejoin="round"/>
</g>
<g style="mix-blend-mode:soft-light" opacity="0.55">
<path d="M135.644 112.515L154.492 129.622L175.145 115.043L193.27 94.6527L173.011 113.632L154.328 126.076L135.644 112.515Z" stroke="white" stroke-width="0.88092" stroke-miterlimit="10" stroke-linejoin="round"/>
</g>
<g style="mix-blend-mode:soft-light" opacity="0.55">
<path d="M116.57 126.076L137.42 123.252L131.148 110.643L133.775 122.595L116.57 126.076Z" stroke="white" stroke-width="0.88092" stroke-miterlimit="10" stroke-linejoin="round"/>
</g>
<path d="M23.907 97.0825L65.4436 113.631L58.6139 93.5691L23.907 74.4261V97.0825Z" stroke="white" stroke-width="0.88092" stroke-miterlimit="10" stroke-linejoin="round"/>
<path d="M8.63864 87.0021L23.907 97.0825V74.4261L3.54911 59.8145L8.63864 87.0021Z" stroke="white" stroke-width="0.88092" stroke-miterlimit="10" stroke-linejoin="round"/>
<path d="M65.4437 113.632L121.001 100.465L122.61 95.5721L58.614 93.5692L65.4437 113.632Z" stroke="white" stroke-width="0.88092" stroke-miterlimit="10" stroke-linejoin="round"/>
<path d="M23.907 97.0825L58.6139 93.5691L23.907 74.4261V97.0825Z" stroke="white" stroke-width="0.88092" stroke-miterlimit="10" stroke-linejoin="round"/>
<path d="M23.907 74.4261L3.54911 59.8145L8.63864 87.0021L23.907 97.0825V74.4261Z" stroke="white" stroke-width="0.88092" stroke-miterlimit="10" stroke-linejoin="round"/>
<path d="M135.646 238.57L122.611 230.919L119.196 241.295L127.011 249.405L139.422 244.94L135.646 238.57Z" stroke="white" stroke-width="0.88092" stroke-miterlimit="10" stroke-linejoin="round"/>
<path d="M122.612 230.919L130.886 240.179V248.026L139.423 244.94L135.647 238.57L122.612 230.919Z" stroke="white" stroke-width="0.88092" stroke-miterlimit="10" stroke-linejoin="round"/>
<defs>
<linearGradient id="paint0_linear_4_85" x1="310.938" y1="-41.2099" x2="-113.016" y2="205.095" gradientUnits="userSpaceOnUse">
<stop stop-color="#D9D9D9" stop-opacity="0"/>
<stop offset="0.0001" stop-color="#D9D9D9" stop-opacity="0"/>
<stop offset="1" stop-color="#D9D9D9" stop-opacity="0.28"/>
</linearGradient>
</defs>
</svg>
