<svg width="181" height="156" viewBox="0 0 181 156" fill="none" xmlns="http://www.w3.org/2000/svg">
<path fill-rule="evenodd" clip-rule="evenodd" d="M170.534 16.2876L154.509 8.16523L116.791 1.32007H50.0755L13.5747 11.6776L4.03535 23.951L1.00195 37.5814L1.00291 37.5821L4.67481 52.7487L8.13168 55.2568L16.988 82.3643L33.6098 86.3152L33.6099 86.3158L40.056 97.9705L45.2248 95.3762L46.887 82.6903H46.8878L45.2255 95.3762L45.2259 95.3763L40.0574 97.9705L48.141 100.149L63.7049 124.313L61.1305 103.658L51.7948 101.134L84.4782 109.944L84.4804 109.945L61.1312 103.658L63.7056 124.313H95.4568L84.4806 109.945L84.4805 109.945L84.4806 109.944L100.884 93.0617L100.884 93.0629L84.4817 109.945L95.4573 124.313L95.4569 124.313L95.4575 124.313L95.4579 124.313L95.4591 124.311L105.036 115.213L121.758 114.914L121.76 114.914L121.758 114.913L138.563 89.9926H140.791V89.5508L146.566 89.0499L167.432 68.0854H170.698L170.693 68.2151L170.722 68.0854H171.043V66.6595L173.072 57.6533H173.131V57.3888L180.292 25.591L180.293 25.5875L170.534 16.2876ZM84.4804 109.944L84.4805 109.945L84.4804 109.945L84.4803 109.944L84.4804 109.944ZM84.4804 109.944L77.3186 82.6903L84.4803 109.944L84.4804 109.944ZM27.3641 48.6179L40.6437 55.1211V55.1204L27.3648 48.6175L27.3641 48.6177V48.6179ZM171.089 57.6533H171.043V58.8653L171.089 57.6533ZM148.235 76.431H148.094V76.628L148.235 76.431ZM80.8484 130.5L80.85 130.5L80.851 130.501L97.9913 133.533L111.203 127.946L118.626 131.558L104.377 155.546L97.1926 155.206L97.1933 155.204L94.72 150.856L72.0492 141.676L68.5567 131.019L80.8484 130.5ZM108.07 118.566L104.119 123.136L108.828 124.792L117.35 124.194L115.913 119.145L111.084 118.227L108.07 118.566Z" fill="#040415"/>
<g opacity="0.7">
<path d="M170.535 16.2876L154.51 8.16523L116.792 1.32007H50.0763L13.5754 11.6776L4.03609 23.951L1.00269 37.5814L20.5802 50.3937L27.3655 48.6175L46.7635 58.1169L65.8221 53.6067H142.775L171.593 44.247L180.294 25.5875L170.535 16.2876Z" fill="url(#paint0_linear_0_371)" stroke="white" stroke-width="0.88092" stroke-miterlimit="10" stroke-linejoin="round"/>
<g style="mix-blend-mode:soft-light" opacity="0.55">
<path d="M17.3257 61.9287L27.3639 66.0198L49.0968 79.1514L27.3639 63.5851L17.3257 61.9287Z" stroke="white" stroke-width="0.88092" stroke-miterlimit="10" stroke-linejoin="round"/>
</g>
<g style="mix-blend-mode:soft-light" opacity="0.55">
<path d="M167.739 67.776L154.527 67.5964L143.012 57.2588L155.665 66.0198L167.739 67.776Z" stroke="white" stroke-width="0.88092" stroke-miterlimit="10" stroke-linejoin="round"/>
</g>
<path d="M68.5566 131.019L74.5636 139.461L94.7199 150.856L97.1945 155.206L99.8887 145.408L95.3785 137.425L80.8499 130.5L68.5566 131.019Z" stroke="white" stroke-width="0.88092" stroke-miterlimit="10" stroke-linejoin="round"/>
<path d="M45.2263 95.3762L84.4812 109.945L75.0417 74.0225L49.0979 79.1513L47.5014 78.0138L45.2263 95.3762Z" stroke="white" stroke-width="0.88092" stroke-miterlimit="10" stroke-linejoin="round"/>
<path d="M74.5636 139.461L94.7199 150.856L72.0491 141.676L68.5566 131.019L74.5636 139.461Z" stroke="white" stroke-width="0.88092" stroke-miterlimit="10" stroke-linejoin="round"/>
<path d="M95.3765 137.425L99.8866 145.408L97.1925 155.207L104.377 155.546L118.626 131.558L95.3765 137.425Z" stroke="white" stroke-width="0.88092" stroke-miterlimit="10" stroke-linejoin="round"/>
<path d="M102.72 110.942L138.742 89.7284L121.759 114.914L105.035 115.213L102.72 110.942Z" stroke="white" stroke-width="0.88092" stroke-miterlimit="10" stroke-linejoin="round"/>
<path d="M84.4817 109.945L95.4579 124.313L102.722 110.942L100.886 93.0612L84.4817 109.945Z" stroke="white" stroke-width="0.88092" stroke-miterlimit="10" stroke-linejoin="round"/>
<path d="M61.1305 103.658L63.7049 124.313L48.1387 100.146L61.1305 103.658Z" stroke="white" stroke-width="0.88092" stroke-miterlimit="10" stroke-linejoin="round"/>
<path d="M45.2262 95.3762L84.481 109.945L40.0574 97.9705L45.2262 95.3762Z" stroke="white" stroke-width="0.88092" stroke-miterlimit="10" stroke-linejoin="round"/>
<path d="M27.3655 63.585L33.6119 86.3157L16.988 82.3643L8.1272 55.2431L17.3273 61.9286L27.3655 63.585Z" stroke="white" stroke-width="0.88092" stroke-miterlimit="10" stroke-linejoin="round"/>
<path d="M65.8215 53.6067L75.0416 74.0224L84.4811 109.945L100.886 93.0611L98.6105 74.0224L99.8877 53.6067H65.8215Z" stroke="white" stroke-width="0.88092" stroke-miterlimit="10" stroke-linejoin="round"/>
<path d="M146.567 89.0499L167.741 67.776L155.667 66.0198L138.744 89.7284L146.567 89.0499Z" stroke="white" stroke-width="0.88092" stroke-miterlimit="10" stroke-linejoin="round"/>
<path d="M45.2256 95.3762L47.5006 78.0138L27.3643 63.5851L33.6107 86.3158L40.0568 97.9705L45.2256 95.3762Z" stroke="white" stroke-width="0.88092" stroke-miterlimit="10" stroke-linejoin="round"/>
<path d="M14.2739 59.7134L16.988 82.3643L8.1272 55.2431L14.2739 59.7134Z" stroke="white" stroke-width="0.88092" stroke-miterlimit="10" stroke-linejoin="round"/>
<path d="M100.885 93.0612L98.6101 74.0225L138.743 89.7284L112.6 92.0434L100.885 93.0612Z" stroke="white" stroke-width="0.88092" stroke-miterlimit="10" stroke-linejoin="round"/>
<path d="M102.721 110.942L121.76 114.914L105.036 115.213L95.4568 124.313L102.721 110.942Z" stroke="white" stroke-width="0.88092" stroke-miterlimit="10" stroke-linejoin="round"/>
<path d="M95.4566 124.313L84.4804 109.945L61.1311 103.658L63.7055 124.313H95.4566Z" stroke="white" stroke-width="0.88092" stroke-miterlimit="10" stroke-linejoin="round"/>
<path d="M138.743 89.7284L100.885 93.0612L102.721 110.942L138.743 89.7284Z" stroke="white" stroke-width="0.88092" stroke-miterlimit="10" stroke-linejoin="round"/>
<path d="M108.07 118.566L104.118 123.136L108.828 124.792L117.35 124.194L115.913 119.145L111.083 118.227L108.07 118.566Z" stroke="white" stroke-width="0.88092" stroke-miterlimit="10" stroke-linejoin="round"/>
<path d="M111.203 127.946L97.9913 133.533L80.8484 130.5L95.3769 137.425L118.627 131.558L111.203 127.946Z" stroke="white" stroke-width="0.88092" stroke-miterlimit="10" stroke-linejoin="round"/>
<path d="M75.0416 74.0224L100.886 93.0611L98.6105 74.0224L99.6282 57.618L94.2 58.1169L65.8215 53.6067L75.0416 74.0224Z" stroke="white" stroke-width="0.88092" stroke-miterlimit="10" stroke-linejoin="round"/>
<path d="M75.0409 74.0224L65.8209 53.6067L56.4412 62.6471L49.0972 79.1513L75.0409 74.0224Z" stroke="white" stroke-width="0.88092" stroke-miterlimit="10" stroke-linejoin="round"/>
<path d="M171.592 44.2471L170.694 68.2151L180.293 25.5875L171.592 44.2471Z" stroke="white" stroke-width="0.88092" stroke-miterlimit="10" stroke-linejoin="round"/>
<path d="M49.0972 79.1514L27.3643 63.5852V48.6176L46.7622 58.117L49.0972 79.1514Z" stroke="white" stroke-width="0.88092" stroke-miterlimit="10" stroke-linejoin="round"/>
<path d="M27.3639 63.5852L17.3257 61.9288L20.5786 50.3938L27.3639 48.6176V63.5852Z" stroke="white" stroke-width="0.88092" stroke-miterlimit="10" stroke-linejoin="round"/>
<path d="M17.3273 61.9288L20.5802 50.3938L1.00269 37.5815L4.67472 52.7487L17.3273 61.9288Z" stroke="white" stroke-width="0.88092" stroke-miterlimit="10" stroke-linejoin="round"/>
<path d="M34.3096 71.6476L43.8489 77.3553L42.5118 79.7501L34.9881 76.557L34.3096 71.6476Z" stroke="white" stroke-width="0.88092" stroke-miterlimit="10" stroke-linejoin="round"/>
<g style="mix-blend-mode:soft-light" opacity="0.55">
<path d="M49.0972 79.1513L57.7184 63.8844L65.8209 53.6067L56.4412 62.6471L49.0972 79.1513Z" stroke="white" stroke-width="0.88092" stroke-miterlimit="10" stroke-linejoin="round"/>
</g>
<g style="mix-blend-mode:soft-light" opacity="0.55">
<path d="M65.8215 53.6067L95.4573 59.5937L134.732 54.365L94.2 58.1169L65.8215 53.6067Z" stroke="white" stroke-width="0.88092" stroke-miterlimit="10" stroke-linejoin="round"/>
</g>
</g>
<defs>
<linearGradient id="paint0_linear_0_371" x1="189.584" y1="-23.3793" x2="-63.5662" y2="128.81" gradientUnits="userSpaceOnUse">
<stop stop-color="#D9D9D9" stop-opacity="0"/>
<stop offset="0.0001" stop-color="#D9D9D9" stop-opacity="0"/>
<stop offset="1" stop-color="#D9D9D9" stop-opacity="0.28"/>
</linearGradient>
</defs>
</svg>
