<svg width="94" height="86" viewBox="0 0 94 86" fill="none" xmlns="http://www.w3.org/2000/svg">
<path fill-rule="evenodd" clip-rule="evenodd" d="M86.3053 8.40668L78.3272 4.36132L60.1487 0.950928L60.0211 1.03928L59.5342 0.950928H26.2906L7.21086 7.25964L0.738281 13.5274L2.48956 18.8632L2.48979 18.8633L9.80207 30.9275L9.10981 27.7524L12.2314 38.8621L12.1467 38.8749L19.8489 42.7084L25.5229 54.6979L31.2057 57.268L31.2058 57.2685L31.2062 57.2682L31.2066 57.2684L31.2065 57.2685L51.3921 64.0994L51.392 64.0995L31.2065 57.2686L39.1129 66.24L40.6286 76.3893L51.3923 64.0996L51.3927 64.0999L40.6293 76.3892L51.3418 84.7154L59.156 81.5201L61.6549 76.4097H61.6543L63.2014 73.2451L63.2009 73.2447L70.2158 67.5509L70.0691 66.8333L70.2168 67.5509L73.2175 50.9188L81.9523 35.1594L85.0961 34.2253L85.0962 34.2253L89.3976 28.1624L86.8373 22.2738L86.8379 22.2736L92.7472 15.6781L86.3053 8.40668ZM59.6166 23.7381L72.9195 27.7936L72.9192 27.7937L85.0961 34.2253L72.9191 27.7937L59.6167 23.7385L59.6166 23.7381ZM59.6166 23.7381L59.616 23.7383L59.6158 23.7382L59.6162 23.7381L59.6166 23.7381ZM37.9805 34.961L37.9807 34.961L37.0445 29.5757L59.6156 23.7384L59.6155 23.7382L37.0441 29.5757L37.0444 29.5757L37.9805 34.961ZM66.3451 39.7963L66.3452 39.7966L65.1752 40.5215L66.5519 39.7349L66.3451 39.7963ZM54.9569 46.8529L64.7149 40.8068L64.7155 40.8099L54.9569 46.8529ZM38.0531 35.3008L54.9568 46.853L38.8779 52.4755L51.3923 64.0989L51.3921 64.0993L38.8773 52.4755L31.2069 57.2682L31.2068 57.2679L38.8766 52.4755L38.8766 52.4754L54.9553 46.8529L38.0532 35.3018L38.0531 35.3008ZM9.03366 27.4031L9.68863 24.0289L9.09675 27.6924L9.03366 27.4031ZM38.8445 51.8253L38.3337 41.3723L38.4057 42.9305L38.4055 42.9307L38.8445 51.8253ZM33.306 62.8808L37.4845 66.8237L38.0375 68.4418L35.1085 68.6774L31.2065 66.0556L33.306 62.8808ZM6.11463 29.5757L9.09488 32.5355H6.11463V29.5757Z" fill="#040415"/>
<g opacity="0.4">
<path d="M2.48975 18.8632L9.80212 30.9275L9.03372 27.4031L9.68947 24.0248L2.48975 18.8632Z" stroke="white" stroke-width="0.610658" stroke-miterlimit="10" stroke-linejoin="round"/>
<path d="M86.3053 8.40668L78.3272 4.36132L59.5342 0.950928H26.2906L7.21085 7.25964L0.738281 13.5274L2.48956 18.8632L9.68928 24.0248L9.09528 27.7015L37.0441 29.5757L59.6162 23.7381L72.9198 27.7937L86.8379 22.2735L92.7472 15.6781L86.3053 8.40668Z" stroke="white" stroke-width="0.610658" stroke-miterlimit="10" stroke-linejoin="round"/>
<g style="mix-blend-mode:soft-light" opacity="0.77">
<path d="M86.3053 8.40668L78.3272 4.36132L60.1487 0.950928L60.0156 1.0431L59.5342 0.950928H26.2906L7.21085 7.25964L0.738281 13.5274L2.48956 18.8632L9.68928 24.0248L9.09528 27.7015L37.0441 29.5757L59.6162 23.7381L72.9198 27.7937L86.8379 22.2735L92.7472 15.6781L86.3053 8.40668Z" stroke="white" stroke-width="0.610658" stroke-miterlimit="10" stroke-linejoin="round"/>
</g>
<path d="M92.7472 15.6781L86.3053 8.40668L78.3272 4.36132L60.1487 0.950928L60.0156 1.0431L59.6162 0.971411L59.5342 0.950928H26.2906L7.21086 7.25964L2.95043 11.3869L0.738281 13.5274L2.48956 18.8632L9.68928 24.0248L9.09528 27.7015L12.4033 27.9166L37.0441 29.5757L51.9146 25.7249L59.6162 23.7381L72.9198 27.7937L86.8379 22.2736L89.7157 19.0577L92.7472 15.6781Z" fill="url(#paint0_linear_0_159)" stroke="white" stroke-width="0.610658" stroke-miterlimit="10" stroke-linejoin="round"/>
<path d="M64.7107 40.7869L70.2166 67.5509L73.2174 50.9188L81.9533 35.1573L66.5844 39.7162L64.7107 40.7869Z" stroke="white" stroke-width="0.610658" stroke-miterlimit="10" stroke-linejoin="round"/>
<path d="M38.8762 52.4755L54.9552 46.853L38.0364 35.2904L38.8762 52.4755Z" stroke="white" stroke-width="0.610658" stroke-miterlimit="10" stroke-linejoin="round"/>
<path d="M19.634 42.2546L25.5228 54.698L31.2068 57.2686L30.07 47.7952L19.634 42.2546Z" stroke="white" stroke-width="0.610658" stroke-miterlimit="10" stroke-linejoin="round"/>
<path d="M51.3929 64.0994L38.8779 52.4754L54.957 46.8529L64.7477 40.79L51.3929 64.0994Z" stroke="white" stroke-width="0.610658" stroke-miterlimit="10" stroke-linejoin="round"/>
<path d="M63.2004 73.2451L51.3921 64.0995L70.2158 67.5508L63.2004 73.2451Z" stroke="white" stroke-width="0.610658" stroke-miterlimit="10" stroke-linejoin="round"/>
<path d="M51.3921 64.0994L70.2158 67.5508L64.7469 40.79L51.3921 64.0994Z" stroke="white" stroke-width="0.610658" stroke-miterlimit="10" stroke-linejoin="round"/>
<path d="M30.0692 47.7952L38.4057 42.9305L38.037 34.9525L12.1467 38.8749L30.0692 47.7952Z" stroke="white" stroke-width="0.610658" stroke-miterlimit="10" stroke-linejoin="round"/>
<path d="M51.3924 64.0996L40.6286 76.3893L39.1129 66.24L31.2065 57.2686L51.3924 64.0996Z" stroke="white" stroke-width="0.610658" stroke-miterlimit="10" stroke-linejoin="round"/>
<path d="M40.6294 76.3892L59.1561 81.5201L51.3419 84.7154L40.6294 76.3892Z" stroke="white" stroke-width="0.610658" stroke-miterlimit="10" stroke-linejoin="round"/>
<path d="M40.6294 76.3892L51.3931 64.0995L63.2015 73.2451L59.1561 81.5201L40.6294 76.3892Z" stroke="white" stroke-width="0.610658" stroke-miterlimit="10" stroke-linejoin="round"/>
<path d="M31.2059 57.2685L38.8767 52.4755L38.4056 42.9305L30.0691 47.7952L31.2059 57.2685Z" stroke="white" stroke-width="0.610658" stroke-miterlimit="10" stroke-linejoin="round"/>
<path d="M31.2065 57.2684L38.8774 52.4755L51.3924 64.0995L31.2065 57.2684Z" stroke="white" stroke-width="0.610658" stroke-miterlimit="10" stroke-linejoin="round"/>
<path d="M61.655 76.4096L40.6294 76.3892L59.1561 81.5201L61.655 76.4096Z" stroke="white" stroke-width="0.610658" stroke-miterlimit="10" stroke-linejoin="round"/>
<path d="M39.1129 66.24L51.3924 64.0996L31.2065 57.2686L39.1129 66.24Z" stroke="white" stroke-width="0.610658" stroke-miterlimit="10" stroke-linejoin="round"/>
<path d="M37.4845 66.8237L33.306 62.8807L31.2065 66.0556L35.1085 68.6774L38.0376 68.4418L37.4845 66.8237Z" stroke="white" stroke-width="0.610658" stroke-miterlimit="10" stroke-linejoin="round"/>
<path d="M33.306 62.8807L35.1085 68.6774L31.2065 66.0556L33.306 62.8807Z" stroke="white" stroke-width="0.610658" stroke-miterlimit="10" stroke-linejoin="round"/>
<path d="M9.095 32.5355L6.11475 29.5757V32.5355H9.095Z" stroke="white" stroke-width="0.610658" stroke-miterlimit="10" stroke-linejoin="round"/>
<path d="M54.9567 46.853L66.3451 39.7966L59.6165 23.7381L37.0444 29.5757L38.0379 35.2904L54.9567 46.853Z" stroke="white" stroke-width="0.610658" stroke-miterlimit="10" stroke-linejoin="round"/>
<path d="M66.3441 39.7966L85.0961 34.2253L72.9191 27.7937L59.6155 23.7381L66.3441 39.7966Z" stroke="white" stroke-width="0.610658" stroke-miterlimit="10" stroke-linejoin="round"/>
<path d="M85.0962 34.2253L89.3976 28.1624L86.8373 22.2736L72.9192 27.7937L85.0962 34.2253Z" stroke="white" stroke-width="0.610658" stroke-miterlimit="10" stroke-linejoin="round"/>
<path d="M12.2456 38.9132L38.0377 35.2904L37.0443 29.5757L9.09546 27.7015L12.2456 38.9132Z" stroke="white" stroke-width="0.610658" stroke-miterlimit="10" stroke-linejoin="round"/>
</g>
<defs>
<linearGradient id="paint0_linear_0_159" x1="97.5148" y1="-11.4972" x2="-31.1394" y2="67.2586" gradientUnits="userSpaceOnUse">
<stop stop-color="#D9D9D9" stop-opacity="0"/>
<stop offset="0.0001" stop-color="#D9D9D9" stop-opacity="0"/>
<stop offset="1" stop-color="#D9D9D9" stop-opacity="0.28"/>
</linearGradient>
</defs>
</svg>
